<?xml version="1.0" encoding="UTF-8" standalone="no"?>
<svg
   viewBox="0 0 512 512"
   style="height: 512px; width: 512px;"
   version="1.1"
   id="svg2"
   sodipodi:docname="punch-blast.svg"
   inkscape:export-filename="power.png"
   inkscape:export-xdpi="96"
   inkscape:export-ydpi="96"
   inkscape:version="1.3.2 (091e20e, 2023-11-25, custom)"
   xmlns:inkscape="http://www.inkscape.org/namespaces/inkscape"
   xmlns:sodipodi="http://sodipodi.sourceforge.net/DTD/sodipodi-0.dtd"
   xmlns="http://www.w3.org/2000/svg"
   xmlns:svg="http://www.w3.org/2000/svg">
  <sodipodi:namedview
     id="namedview2"
     pagecolor="#ffffff"
     bordercolor="#000000"
     borderopacity="0.25"
     inkscape:showpageshadow="2"
     inkscape:pageopacity="0.0"
     inkscape:pagecheckerboard="0"
     inkscape:deskcolor="#d1d1d1"
     inkscape:zoom="0.79394531"
     inkscape:cx="29.599016"
     inkscape:cy="193.33825"
     inkscape:window-width="1920"
     inkscape:window-height="1009"
     inkscape:window-x="-8"
     inkscape:window-y="-8"
     inkscape:window-maximized="1"
     inkscape:current-layer="svg2" />
  <defs
     id="defs2">
    <linearGradient
       x1="0"
       x2="1"
       y1="0"
       y2="1"
       id="lorc-punch-blast-gradient-0">
      <stop
         offset="0%"
         stop-color="#f5a623"
         stop-opacity="1"
         id="stop1" />
      <stop
         offset="100%"
         stop-color="#d0021b"
         stop-opacity="1"
         id="stop2" />
    </linearGradient>
  </defs>
  <path
     id="path3"
     style="fill:#ffffff;stroke-width:23.5552"
     d="m 30.20857,214.26251 c -0.444627,0.76766 -0.876496,1.55629 -1.297505,2.3682 -1.393194,2.68264 -2.648319,5.59188 -3.751556,8.75635 L 130.69845,399.71157 c 34.66819,6.40906 56.79721,-10.51282 70.66825,-42.78914 L 95.83262,182.61497 c -26.232143,3.3574 -51.806717,7.78684 -65.62405,31.64754 z m 73.75146,-94.33702 c -0.44397,0.77 -0.87732,1.5578 -1.29751,2.36821 -1.3917,2.68346 -2.63883,5.5971 -3.740569,8.76241 L 222.29392,329.6421 c 34.659,6.40796 56.80171,-10.50363 70.67354,-42.7814 L 169.59178,88.272625 c -26.22616,3.360735 -51.81475,7.787226 -65.62609,31.651225 z m 96.52385,-61.629823 c -0.44408,0.770348 -0.88078,1.564227 -1.29953,2.371856 -1.39489,2.685615 -2.64884,5.596357 -3.75357,8.76003 L 317.38645,265.34078 c 34.66038,6.41262 56.78321,-10.51379 70.66255,-42.78745 L 266.10463,26.636752 c -26.22493,3.364376 -51.79774,7.795676 -65.61874,31.655255 z m 121.096,-23.954361 0.004,0.002 c -1.44649,2.594701 -2.76134,5.399075 -3.93564,8.440473 l 98.52034,162.746101 c 33.85971,5.0793 56.09539,-11.67253 70.67191,-42.78711 L 388.30845,2.35e-6 C 361.61598,4.0949429 335.56537,9.2580897 321.57988,34.341306 Z M 173.26135,438.70337 C 182.10563,470.31138 192.3636,500.92739 228.51579,512 L 387.13421,392.42829 c 0.63531,-37.12035 -20.23533,-59.92506 -55.26376,-73.29698 L 173.26338,438.69972 Z" />
</svg>
