<?xml version="1.0" encoding="UTF-8" standalone="no"?>
<svg
   viewBox="0 0 512 512"
   style="height: 512px; width: 512px;"
   version="1.1"
   id="svg2"
   sodipodi:docname="card.svg"
   inkscape:export-filename="spirited.png"
   inkscape:export-xdpi="96"
   inkscape:export-ydpi="96"
   inkscape:version="1.3.2 (091e20e, 2023-11-25, custom)"
   xmlns:inkscape="http://www.inkscape.org/namespaces/inkscape"
   xmlns:sodipodi="http://sodipodi.sourceforge.net/DTD/sodipodi-0.dtd"
   xmlns="http://www.w3.org/2000/svg"
   xmlns:svg="http://www.w3.org/2000/svg">
  <sodipodi:namedview
     id="namedview2"
     pagecolor="#ffffff"
     bordercolor="#000000"
     borderopacity="0.25"
     inkscape:showpageshadow="2"
     inkscape:pageopacity="0.0"
     inkscape:pagecheckerboard="true"
     inkscape:deskcolor="#d1d1d1"
     inkscape:zoom="0.5"
     inkscape:cx="-245"
     inkscape:cy="273"
     inkscape:window-width="1920"
     inkscape:window-height="1009"
     inkscape:window-x="-8"
     inkscape:window-y="-8"
     inkscape:window-maximized="1"
     inkscape:current-layer="g9" />
  <defs
     id="defs2">
    <radialGradient
       id="delapouite-card-joker-gradient-0">
      <stop
         offset="0%"
         stop-color="#b8e986"
         stop-opacity="1"
         id="stop1" />
      <stop
         offset="100%"
         stop-color="#167505"
         stop-opacity="1"
         id="stop2" />
    </radialGradient>
  </defs>
  <g
     id="g17"
     transform="rotate(-90,83.000001,933)">
    <path
       id="rect9"
       style="display:inline;fill:#ffffff;stroke-width:13.3875"
       d="M 51.65625,73.142578 C 23.038748,73.142578 0,96.181322 0,124.79883 v 262.40234 c 0,28.61751 23.038748,51.65625 51.65625,51.65625 h 408.6875 C 488.96125,438.85742 512,415.81868 512,387.20117 V 124.79883 C 512,96.181322 488.96125,73.142578 460.34375,73.142578 Z m 204.31836,55.656252 c 12.51049,0.003 25.23319,1.869 37.80664,5.7832 67.0584,20.87582 104.49691,92.16035 83.62109,159.21875 -20.87601,67.05796 -92.16055,104.49633 -159.21875,83.6211 63.92385,19.74936 132.21834,-13.4105 156.23243,-75.85743 -13.38029,28.9669 -46.15728,43.53112 -76.62305,34.04688 -33.52898,-10.438 -52.24817,-46.08028 -41.81055,-79.60938 h -0.002 c 10.43889,-33.5297 -8.28056,-69.17335 -41.81055,-79.61133 -7.9727,-2.48199 -16.35624,-3.36933 -24.67187,-2.61132 -25.57455,2.33179 -47.22776,19.82023 -54.90039,44.32031 16.99338,-54.42493 67.19962,-89.31438 121.37695,-89.30078 z m -59.43164,76.53711 c 2.77582,0.11074 5.52515,0.58483 8.17773,1.41015 16.7641,5.21942 26.12319,23.04044 20.9043,39.80469 -5.21858,16.76488 -23.03985,26.12499 -39.80469,20.90625 -16.7641,-5.21941 -26.12318,-23.04042 -20.90429,-39.80469 4.27721,-13.7389 17.24916,-22.89208 31.62695,-22.3164 z m 121.42187,37.79883 c -14.37778,-0.57568 -27.34973,8.57749 -31.62695,22.3164 -5.21889,16.76426 4.1402,34.58527 20.9043,39.80469 16.76426,5.21889 34.58527,-4.1402 39.80469,-20.9043 5.21888,-16.76426 -4.1402,-34.58527 -20.9043,-39.80468 -2.6525,-0.82599 -5.40184,-1.30073 -8.17774,-1.41211 z" />
    <path
       d="m 189.49854,173.77834 a 63.584066,63.584066 0 0 0 -54.9375,44.42383 63.584066,63.584066 0 0 0 -0.0137,0.0488 l 0.0156,-0.0488 a 127.16813,127.16813 0 0 0 83.6211,159.21875 127.16813,127.16813 0 0 0 156.23242,-75.85742 63.584066,63.584066 0 0 1 -76.62305,34.04687 63.584066,63.584066 0 0 1 -41.81054,-79.60937 h -0.002 a 63.584066,63.584066 0 0 0 -41.81054,-79.61133 63.584066,63.584066 0 0 0 -24.67188,-2.61133 z m 7.04492,31.55664 a 31.792033,31.792033 0 0 1 8.17774,1.41016 31.792033,31.792033 0 0 1 20.90429,39.80468 31.792033,31.792033 0 0 1 -39.80468,20.90625 31.792033,31.792033 0 0 1 -20.9043,-39.80468 31.792033,31.792033 0 0 1 31.62695,-22.31641 z m 121.42188,37.79883 a 31.792033,31.792033 0 0 0 -31.62695,22.31641 31.792033,31.792033 0 0 0 20.90429,39.80468 31.792033,31.792033 0 0 0 39.80469,-20.90429 31.792033,31.792033 0 0 0 -20.9043,-39.80469 31.792033,31.792033 0 0 0 -8.17773,-1.41211 z"
       style="display:inline;fill:#c83737;stroke-width:11.0831"
       id="path16" />
  </g>
  <g
     id="g9"
     style="fill:#ffffff"
     transform="matrix(-1,0,0,1,512,0)">
    <path
       id="rect2"
       style="fill:#ffffff;stroke:none;stroke-width:15.8791"
       d="m 386.08519,512 c 27.97897,0 50.50366,-22.52469 50.50366,-50.50366 V 50.50366 C 436.58885,22.52469 414.06416,2.3749999e-7 386.08519,2.3749999e-7 H 125.91481 C 97.93584,2.3749999e-7 75.41115,22.52469 75.41115,50.50366 V 461.49634 C 75.41115,489.47531 97.93584,512 125.91481,512 Z m 8.11119,-56.47832 H 117.80362 v -208.0477 h 276.39276 z" />
  </g>
  <g
     id="g6"
     transform="translate(-1.0858154)" />
</svg>
