<?xml version="1.0" encoding="UTF-8" standalone="no"?>
<svg
   viewBox="0 0 512 512"
   style="height: 512px; width: 512px;"
   version="1.1"
   id="svg2"
   sodipodi:docname="high-punch.svg"
   inkscape:export-filename="high-punch.png"
   inkscape:export-xdpi="96"
   inkscape:export-ydpi="96"
   inkscape:version="1.3.2 (091e20e, 2023-11-25, custom)"
   xmlns:inkscape="http://www.inkscape.org/namespaces/inkscape"
   xmlns:sodipodi="http://sodipodi.sourceforge.net/DTD/sodipodi-0.dtd"
   xmlns="http://www.w3.org/2000/svg"
   xmlns:svg="http://www.w3.org/2000/svg">
  <sodipodi:namedview
     id="namedview2"
     pagecolor="#909090"
     bordercolor="#000000"
     borderopacity="0.25"
     inkscape:showpageshadow="2"
     inkscape:pageopacity="0.0"
     inkscape:pagecheckerboard="0"
     inkscape:deskcolor="#d1d1d1"
     inkscape:zoom="0.56140411"
     inkscape:cx="105.98426"
     inkscape:cy="179.01543"
     inkscape:window-width="1920"
     inkscape:window-height="1009"
     inkscape:window-x="2512"
     inkscape:window-y="253"
     inkscape:window-maximized="1"
     inkscape:current-layer="svg2" />
  <defs
     id="defs2">
    <linearGradient
       x1="0"
       x2="1"
       y1="0"
       y2="1"
       id="delapouite-high-punch-gradient-0">
      <stop
         offset="0%"
         stop-color="#f5a623"
         stop-opacity="1"
         id="stop1" />
      <stop
         offset="100%"
         stop-color="#d0021b"
         stop-opacity="1"
         id="stop2" />
    </linearGradient>
  </defs>
  <g
     class=""
     transform="matrix(1.7959271,0,0,1.7959271,-233.62158,-94.540848)"
     style="fill:#ffffff"
     id="g2">
    <path
       d="m 221.6,28.53 c -5.2,0.1 -10.6,2.18 -15.8,6.35 -7.7,6.03 -14.4,16.44 -17.8,29.58 -3.3,13.14 -2.5,26.2 1.1,36.24 3.6,9.9 9.4,16.4 16.6,18.9 6,2.1 12.6,1.3 19,-2.6 2.3,-13.6 9.9,-24.28 21.3,-31.6 0.1,-0.19 0.1,-0.38 0.2,-0.58 3.3,-13.15 2.5,-26.2 -1.1,-36.2 -3.6,-9.95 -9.4,-16.46 -16.6,-18.97 -2.3,-0.78 -4.6,-1.16 -6.9,-1.12 z m 212.5,49.31 c -3.2,0.72 -11,3.44 -18.7,7.15 -8.7,4.14 -17.4,8.86 -22.4,11.5 l -0.9,0.45 -0.9,0.25 c -38.1,10.61 -57.5,17.91 -88.3,23.21 -2.2,6.1 -6,12.5 -11.3,19 h -0.1 v 0.1 c -6.2,7.4 -12.4,14.7 -18.7,21.9 45.8,-8.5 78.8,-16.7 132.7,-38 l 4.1,-1.6 3.9,2.3 c 5.5,3.4 13.4,5.8 19.6,6.3 3.1,0.3 5.8,0 7.4,-0.4 1.4,-0.4 1.4,-0.7 1.4,-0.6 5.4,-11.9 7.3,-24.4 5.5,-33.8 -1.7,-8.89 -5.7,-14.64 -13.3,-17.76 z M 272.2,96.08 c -8.9,-0.1 -20.1,4.32 -27.6,15.62 -5.9,29.5 -26.7,50.1 -57.2,62.6 l -6.8,-16.6 c 12.7,-5.2 22.6,-11.2 30.1,-18.6 -3.1,-0.2 -6.3,-0.9 -9.4,-2 -10.4,-3.7 -18.6,-11.6 -24.1,-21.4 -14.6,2.8 -22.6,6.3 -32.8,14.6 -4.1,36.5 6.8,67.5 27.6,96.6 41.7,-25.4 73.7,-60.5 105.7,-98.9 8.2,-10.2 10,-17.6 9.5,-21.9 -0.6,-4.2 -2.7,-6.73 -7.2,-8.58 -2.2,-0.91 -4.9,-1.42 -7.8,-1.44 z M 131.5,185.5 c -1.7,23.2 -0.7,48.5 -1,75 v 3.8 l -2.7,2.6 C 75.51,317.5 33.9,400.5 20.36,495.7 H 60.98 C 70.1,454.5 78.45,413.4 95.67,380 113.9,344.7 143.5,318 191.9,312.5 l 4.8,-0.6 3.1,3.7 c 38.2,45.7 75.3,103.9 85.9,180.1 h 39.6 c -6.3,-88.4 -46.8,-156.5 -97.1,-229 -9.8,-14.1 -10.2,-29.8 -6.5,-44.9 0.9,-3.8 2.1,-7.7 3.4,-11.7 -15.5,13.6 -32.3,26 -51,36.7 l -6.9,3.9 -4.7,-6.2 c -14,-18.2 -24.8,-37.8 -31,-59 z"
       fill="#ffffff"
       fill-opacity="1"
       transform="matrix(0.8,0,0,0.8,51.2,51.2)"
       id="path2"
       style="fill:#ffffff" />
  </g>
</svg>
