<?xml version="1.0" encoding="UTF-8" standalone="no"?>
<!-- Created with Inkscape (http://www.inkscape.org/) -->

<svg
   width="512mm"
   height="512mm"
   viewBox="0 0 512 512"
   version="1.1"
   id="svg1"
   inkscape:version="1.3.2 (091e20e, 2023-11-25, custom)"
   sodipodi:docname="rarity.svg"
   inkscape:export-filename="unique-rare.png"
   inkscape:export-xdpi="96"
   inkscape:export-ydpi="96"
   xmlns:inkscape="http://www.inkscape.org/namespaces/inkscape"
   xmlns:sodipodi="http://sodipodi.sourceforge.net/DTD/sodipodi-0.dtd"
   xmlns="http://www.w3.org/2000/svg"
   xmlns:svg="http://www.w3.org/2000/svg">
  <sodipodi:namedview
     id="namedview1"
     pagecolor="#ffffff"
     bordercolor="#000000"
     borderopacity="0.25"
     inkscape:showpageshadow="2"
     inkscape:pageopacity="0.0"
     inkscape:pagecheckerboard="0"
     inkscape:deskcolor="#d1d1d1"
     inkscape:document-units="mm"
     inkscape:zoom="0.0625"
     inkscape:cx="-2952"
     inkscape:cy="-232"
     inkscape:window-width="1920"
     inkscape:window-height="1009"
     inkscape:window-x="-8"
     inkscape:window-y="-8"
     inkscape:window-maximized="1"
     inkscape:current-layer="layer1" />
  <defs
     id="defs1" />
  <g
     inkscape:label="Layer 1"
     inkscape:groupmode="layer"
     id="layer1">
    <path
       sodipodi:type="star"
       style="fill:#ffffff;stroke:none;stroke-width:3"
       id="path2"
       inkscape:flatsided="false"
       sodipodi:sides="3"
       sodipodi:cx="86.783333"
       sodipodi:cy="82.549995"
       sodipodi:r1="137.58333"
       sodipodi:r2="275.16666"
       sodipodi:arg1="0.52359878"
       sodipodi:arg2="1.5707963"
       inkscape:rounded="-3.469447e-18"
       inkscape:randomized="0"
       d="M 205.93399,151.34166 86.78334,357.71665 -32.367325,151.34166 -151.51799,-55.033326 l 238.301323,-7e-6 238.301307,-6e-6 z"
       inkscape:transform-center-y="73.678319"
       transform="matrix(-1.0742702,0,0,-1.0742702,-810.70459,-275.68484)" />
    <path
       sodipodi:type="star"
       style="fill:#000000;stroke:none;stroke-width:3"
       id="path3"
       inkscape:flatsided="false"
       sodipodi:sides="6"
       sodipodi:cx="186.26666"
       sodipodi:cy="114.3"
       sodipodi:r1="365.79773"
       sodipodi:r2="182.89886"
       sodipodi:arg1="0.78539816"
       sodipodi:arg2="1.3089969"
       inkscape:rounded="0"
       inkscape:randomized="0"
       d="M 444.92472,372.95806 233.60438,290.96674 91.591245,467.63348 56.93764,243.62904 -167.06681,208.97542 9.5999237,66.9623 -72.391393,-144.35805 138.92895,-62.366732 280.94208,-239.03347 315.59569,-15.02903 539.60014,19.624583 362.9334,161.63771 Z"
       inkscape:transform-center-x="1.7049109"
       transform="matrix(0.50676085,-0.48296282,0.48296282,0.50676085,414.72683,958.5629)"
       inkscape:transform-center-y="-13.643851" />
    <path
       sodipodi:type="star"
       style="fill:#ffffff;stroke:none;stroke-width:3"
       id="path4"
       inkscape:flatsided="false"
       sodipodi:sides="4"
       sodipodi:cx="186.26666"
       sodipodi:cy="114.3"
       sodipodi:r1="365.79773"
       sodipodi:r2="125.61146"
       sodipodi:arg1="0.78539816"
       sodipodi:arg2="1.5707963"
       inkscape:rounded="0"
       inkscape:randomized="0"
       d="M 444.92472,372.95806 186.26667,239.91146 -72.391392,372.95806 60.655205,114.30001 -72.391393,-144.35805 186.26666,-11.311455 444.92472,-144.35805 311.87812,114.3 Z"
       inkscape:transform-center-x="2.0700582e-06"
       transform="matrix(0.98972367,0,0,0.98972367,-1299.9525,15.87458)" />
    <path
       sodipodi:type="star"
       style="fill:#ffffff;stroke:none;stroke-width:3"
       id="path5"
       inkscape:flatsided="false"
       sodipodi:sides="5"
       sodipodi:cx="186.26666"
       sodipodi:cy="114.3"
       sodipodi:r1="365.79773"
       sodipodi:r2="182.89886"
       sodipodi:arg1="0.78539816"
       sodipodi:arg2="1.4099985"
       inkscape:rounded="0"
       inkscape:randomized="0"
       d="M 444.92472,372.95806 215.54983,294.83945 20.19797,440.22817 23.612444,197.93971 -175.02749,57.076632 56.45766,-14.547261 129.04329,-246.99415 268.6945,-48.971689 512.19483,-51.768692 367.01887,142.23981 Z"
       inkscape:transform-center-x="-10.220477"
       transform="matrix(0.72780052,0.10877126,-0.10877126,0.72780052,-1271.8733,596.66551)"
       inkscape:transform-center-y="-10.220481" />
    <path
       id="path5-5"
       style="fill:#ffffff;stroke:none;stroke-width:2.20765"
       inkscape:transform-center-x="-10.220477"
       inkscape:transform-center-y="-10.220481"
       d="m -503.38932,-17.794138 -78.11152,161.279558 -176.26569,26.94927 129.24841,124.12627 -28.83907,175.96651 157.99139,-84.56538 158.44201,81.80431 -31.60427,-176.39078 126.76125,-125.40836 -177.52353,-24.4502 z m -2.70681,80.08813 54.88088,109.154578 121.63289,16.75195 -86.85258,85.9255 21.65449,120.85671 -108.55927,-56.0493 -108.24972,57.94117 19.75952,-120.56576 -88.55631,-85.04701 120.77088,-18.46451 z" />
    <circle
       style="fill:#ffffff;stroke:none;stroke-width:2.83465"
       id="path6"
       cx="-31.866667"
       cy="-535.63336"
       r="256" />
  </g>
</svg>
