<?xml version="1.0" encoding="UTF-8" standalone="no"?>
<svg
   viewBox="0 0 512 512"
   style="height: 512px; width: 512px;"
   version="1.1"
   id="svg2"
   sodipodi:docname="moon.svg"
   inkscape:version="1.3.2 (091e20e, 2023-11-25, custom)"
   inkscape:export-filename="moon.png"
   inkscape:export-xdpi="96"
   inkscape:export-ydpi="96"
   xmlns:inkscape="http://www.inkscape.org/namespaces/inkscape"
   xmlns:sodipodi="http://sodipodi.sourceforge.net/DTD/sodipodi-0.dtd"
   xmlns="http://www.w3.org/2000/svg"
   xmlns:svg="http://www.w3.org/2000/svg">
  <sodipodi:namedview
     id="namedview2"
     pagecolor="#ffffff"
     bordercolor="#000000"
     borderopacity="0.25"
     inkscape:showpageshadow="2"
     inkscape:pageopacity="0.0"
     inkscape:pagecheckerboard="0"
     inkscape:deskcolor="#d1d1d1"
     inkscape:zoom="0.56140411"
     inkscape:cx="-48.984323"
     inkscape:cy="298.35906"
     inkscape:window-width="1920"
     inkscape:window-height="1009"
     inkscape:window-x="-8"
     inkscape:window-y="-8"
     inkscape:window-maximized="1"
     inkscape:current-layer="svg2" />
  <defs
     id="defs2">
    <radialGradient
       id="delapouite-night-sleep-gradient-0">
      <stop
         offset="0"
         stop-color="#70a7e7"
         stop-opacity="1"
         id="stop1"
         style="stop-color:#287cdc;stop-opacity:1;" />
      <stop
         offset="1"
         stop-color="#5f1497"
         stop-opacity="1"
         id="stop2"
         style="stop-color:#2a0942;stop-opacity:1;" />
    </radialGradient>
  </defs>
  <polygon
     points="456.92,372,256,488,55.08,372,55.08,140,256,24,456.92,140"
     fill="url(#delapouite-night-sleep-gradient-0)"
     stroke="#000000"
     stroke-opacity="1"
     stroke-width="24"
     id="polygon2" />
  <path
     style="fill:#f9f9f9;stroke:#f9f9f9;stroke-width:0.8"
     d="m -516.27432,-132.43482 c -58.2652,28.71453 -105.24652,78.523893 -108.56594,143.395603 -4.92654,98.846727 71.2108,182.971587 170.05753,187.898137 79.48859,3.92023 152.03894,-45.05408 178.1263,-120.242197 -32.98626,31.621747 -77.52486,48.287027 -123.16678,46.086067 -91.78625,-4.57465 -162.48522,-82.690597 -157.91057,-174.476847 1.66492,-32.84282 21.84065,-56.268993 41.45946,-82.660763 z"
     id="path3"
     sodipodi:nodetypes="ccccccc" />
  <path
     id="path1"
     style="fill:#ffffff;stroke-width:8.28769"
     d="m -948.2486,265.11285 a 189.79515,189.79515 0 0 0 83.00984,255.25267 189.79515,189.79515 0 0 0 255.25267,-83.00985 189.79515,189.79515 0 0 0 9.79359,-23.19413 193.81908,193.81908 0 0 1 -82.95464,-20.83272 193.81908,193.81908 0 0 1 -96.40889,-231.83633 189.79515,189.79515 0 0 0 -168.69257,103.62036 z m 101.3195,7.94131 a 28.838131,28.838131 0 0 1 38.78397,-12.6128 28.838131,28.838131 0 0 1 12.61279,38.78397 28.838131,28.838131 0 0 1 -38.78396,12.61279 28.838131,28.838131 0 0 1 -12.6128,-38.78396 z m -28.2288,169.83986 a 14.083737,14.083737 0 0 1 18.941,-6.15974 14.083737,14.083737 0 0 1 6.15974,18.941 14.083737,14.083737 0 0 1 -18.94101,6.15974 14.083737,14.083737 0 0 1 -6.15973,-18.941 z m 177.67759,14.23671 a 14.083737,14.083737 0 0 1 18.941,-6.15973 14.083737,14.083737 0 0 1 6.15974,18.941 14.083737,14.083737 0 0 1 -18.941,6.15974 14.083737,14.083737 0 0 1 -6.15974,-18.94101 z" />
  <path
     id="path2"
     style="fill:#ffffff;stroke-width:10.3475"
     d="M 254.71875 64.125 A 195.93731 195.93731 0 0 0 58.78125 260.0625 A 195.93731 195.93731 0 0 0 254.71875 456 A 195.93731 195.93731 0 0 0 410.72656 378.53906 A 211.96852 195.93729 0 0 1 268.96875 194.15625 A 211.96852 195.93729 0 0 1 270.60156 173.05273 A 42.704283 42.704283 0 0 1 240.75977 185.28711 A 42.704283 42.704283 0 0 1 198.05664 142.58398 A 42.704283 42.704283 0 0 1 240.75977 99.878906 A 42.704283 42.704283 0 0 1 281.39062 129.44727 A 211.96852 195.93729 0 0 1 314.51953 73.527344 A 195.93731 195.93731 0 0 0 254.71875 64.125 z M 176.05469 197.11719 A 9.2107289 9.2107289 0 0 1 185.26562 206.32812 A 9.2107289 9.2107289 0 0 1 176.05469 215.53906 A 9.2107289 9.2107289 0 0 1 166.84375 206.32812 A 9.2107289 9.2107289 0 0 1 176.05469 197.11719 z M 95.595703 203.68164 A 20.933473 20.933473 0 0 1 116.5293 224.61523 A 20.933473 20.933473 0 0 1 95.595703 245.54883 A 20.933473 20.933473 0 0 1 74.662109 224.61523 A 20.933473 20.933473 0 0 1 95.595703 203.68164 z M 256.80469 229.96484 A 15.90944 15.90944 0 0 1 272.71289 245.87305 A 15.90944 15.90944 0 0 1 256.80469 261.7832 A 15.90944 15.90944 0 0 1 240.89453 245.87305 A 15.90944 15.90944 0 0 1 256.80469 229.96484 z M 175.65625 318.00781 A 42.704283 42.704283 0 0 1 218.35938 360.71289 A 42.704283 42.704283 0 0 1 175.65625 403.41602 A 42.704283 42.704283 0 0 1 132.95117 360.71289 A 42.704283 42.704283 0 0 1 175.65625 318.00781 z M 272.76953 339.3418 A 9.2107289 9.2107289 0 0 1 281.98047 348.55273 A 9.2107289 9.2107289 0 0 1 272.76953 357.76172 A 9.2107289 9.2107289 0 0 1 263.56055 348.55273 A 9.2107289 9.2107289 0 0 1 272.76953 339.3418 z M 361.83594 364.93359 A 15.90944 15.90944 0 0 1 377.74414 380.84375 A 15.90944 15.90944 0 0 1 361.83594 396.75391 A 15.90944 15.90944 0 0 1 345.92578 380.84375 A 15.90944 15.90944 0 0 1 361.83594 364.93359 z " />
</svg>
